<?xml version="1.0" encoding="utf-8"?>
<!-- Generator: Adobe Illustrator 25.2.0, SVG Export Plug-In . SVG Version: 6.00 Build 0)  -->
<svg version="1.1"
	 id="Layer_1" xmlns:cc="http://creativecommons.org/ns#" xmlns:dc="http://purl.org/dc/elements/1.1/" xmlns:rdf="http://www.w3.org/1999/02/22-rdf-syntax-ns#"
	 xmlns="http://www.w3.org/2000/svg" xmlns:xlink="http://www.w3.org/1999/xlink" x="0px" y="0px" viewBox="0 0 24 24"
	 style="enable-background:new 0 0 24 24;" xml:space="preserve">
<g transform="translate(0 -1028.4)">
	<g>
		<path d="M17,1033.4c1.1,0,2.1,0.4,2.8,1.1c1.6,1.6,1.6,4.1,0,5.7l-7.8,8.3l-7.8-8.3c-1.6-1.7-1.6-4.1,0-5.7c0.9-0.9,2-1.1,2.8-1.1
			s1.9,0.2,2.8,1.1l0.8,0.8l1.5,1.6l1.5-1.6l0.7-0.8C14.9,1033.8,15.9,1033.4,17,1033.4 M17,1031.4c-1.5,0-3.1,0.6-4.2,1.7l-0.8,0.8
			l-0.8-0.8c-1.2-1.2-2.7-1.7-4.2-1.7s-3.1,0.5-4.2,1.7c-2.3,2.4-2.3,6.1,0,8.5l9.2,9.8l9.2-9.8c2.3-2.4,2.3-6.1,0-8.5
			C20.1,1031.9,18.5,1031.4,17,1031.4L17,1031.4z"/>
	</g>
</g>
</svg>
